<svg xmlns="http://www.w3.org/2000/svg" viewBox="67.2 -935.6 460.9 395.4" width="230" height="198"><path fill="#000" fill-rule="nonzero" d="M350.3 -600.3C366.9 -591.1 426.7 -657.0 445.6 -705.2C455.8 -731.4 463.8 -763.1 463.8 -777.5C463.8 -780.1 464.3 -784.9 464.9 -788.1C475.7 -845.1 460.6 -875.6 421.6 -875.6C365.2 -875.6 352.5 -795.9 406.1 -778.1C421.3 -773.0 421.6 -772.4 419.2 -756.1C410.5 -698.7 386.9 -656.8 347.7 -629.3C338.0 -622.5 337.2 -621.4 337.2 -615.6C337.2 -612.0 344.4 -603.5 350.3 -600.3ZM137.4 -603.3C146.4 -597.5 153.1 -600.6 179.4 -622.7C215.2 -652.7 233.5 -686.5 251.0 -754.7C271.2 -833.8 253.2 -882.1 206.0 -875.1C156.4 -867.7 150.1 -787.9 198.3 -778.1C213.7 -774.9 213.7 -775.0 205.2 -733.6C197.4 -695.3 179.2 -664.9 147.0 -636.1C127.4 -618.6 127.2 -618.4 127.2 -615.6C127.2 -612.0 131.1 -607.3 137.4 -603.3Z"/></svg>