<svg xmlns="http://www.w3.org/2000/svg" viewBox="58.9 -1614.7 968.6 1683.9" width="484" height="842"><path fill="#000" fill-rule="nonzero" d="M936.7 8.6C953.0 10.0 960.2 9.1 964.4 5.2C968.6 1.2 968.5 -1537.3 964.3 -1546.1C959.5 -1555.9 930.8 -1558.0 920.2 -1549.3C916.0 -1545.8 916.0 -1543.5 915.7 -1082.6C915.6 -789.3 914.7 -618.4 913.4 -616.8C909.6 -611.9 903.9 -618.0 894.0 -637.6C858.1 -708.7 760.8 -788.9 679.7 -814.0C569.8 -848.1 446.7 -841.8 359.0 -797.7C246.9 -741.5 145.1 -619.3 128.8 -521.8C127.5 -513.9 124.9 -502.3 123.0 -495.9C116.4 -473.8 118.0 -362.3 125.4 -330.3C158.0 -189.5 276.2 -61.6 409.5 -22.9C473.6 -4.3 567.7 -3.3 647.0 -20.4C744.4 -41.5 841.5 -110.9 887.1 -192.0C916.3 -244.2 915.0 -247.9 915.0 -110.8C915.0 17.1 913.1 6.6 936.7 8.6ZM578.4 -58.0C452.6 -36.5 288.3 -117.0 220.8 -233.2C181.6 -300.7 159.8 -409.4 174.4 -465.3C176.2 -472.1 178.2 -483.5 178.9 -490.5C179.6 -497.5 181.8 -507.6 183.8 -512.8C185.8 -518.0 188.1 -525.8 188.9 -530.1C192.4 -549.5 218.6 -600.5 239.0 -627.6C305.4 -716.0 386.5 -767.0 479.2 -778.9C531.9 -785.6 542.7 -785.9 575.3 -781.0C591.5 -778.6 608.2 -776.6 612.4 -776.6C619.2 -776.6 634.4 -772.2 669.2 -760.1C796.9 -715.7 889.9 -604.3 905.6 -476.9C906.7 -468.2 909.0 -453.5 910.7 -444.2C917.3 -408.4 912.1 -360.3 896.8 -315.5C847.0 -169.9 743.6 -86.2 578.4 -58.0Z"/></svg>