<svg xmlns="http://www.w3.org/2000/svg" viewBox="79.5 -1455.9 809.2 1518.7" width="405" height="759"><path fill="#000" fill-rule="nonzero" d="M149.3 0.8C157.8 4.4 192.9 2.9 197.0 -1.2L200.4 -4.6L200.8 -333.8C201.1 -627.5 201.4 -663.3 203.5 -665.6C205.6 -668.0 213.6 -668.2 307.2 -668.1C404.0 -668.0 435.0 -668.8 533.9 -673.8C557.4 -675.0 590.8 -676.4 608.1 -676.9C626.7 -677.4 647.3 -678.9 658.6 -680.6C669.0 -682.2 683.9 -683.5 691.6 -683.5C699.2 -683.6 711.6 -684.2 719.0 -685.1C726.4 -685.9 749.5 -687.5 770.2 -688.7C794.9 -690.0 809.4 -691.4 812.1 -692.7C821.7 -697.5 824.3 -708.1 816.8 -712.2C814.4 -713.5 798.2 -714.4 762.5 -715.1C734.4 -715.7 701.4 -716.9 689.0 -717.8C663.8 -719.5 625.5 -721.6 572.1 -724.0C552.3 -725.0 527.0 -726.8 515.9 -728.0C500.2 -729.8 463.0 -730.7 350.5 -732.0C209.6 -733.7 205.3 -733.8 203.3 -736.6C199.7 -741.4 200.1 -1348.4 203.6 -1352.3C207.9 -1357.0 218.0 -1356.5 324.8 -1346.1C388.3 -1339.9 401.0 -1339.3 470.2 -1339.3C559.8 -1339.3 712.0 -1342.6 751.6 -1345.4C768.7 -1346.6 789.3 -1347.5 797.3 -1347.5C821.4 -1347.6 825.2 -1349.4 827.7 -1362.7C831.1 -1380.6 825.9 -1395.9 816.3 -1395.9C540.4 -1395.8 388.7 -1395.2 341.3 -1393.9C299.0 -1392.7 262.2 -1392.7 216.5 -1393.8C149.4 -1395.4 145.0 -1395.1 141.5 -1389.5C139.5 -1386.3 138.7 -16.8 140.7 -9.0C142.0 -3.8 144.2 -1.4 149.3 0.8Z"/></svg>