<svg xmlns="http://www.w3.org/2000/svg" viewBox="28.2 -1451.3 2051.3 1524.4" width="1026" height="762"><path fill="#000" fill-rule="nonzero" d="M1977.0 12.1C2024.5 14.7 2024.5 14.7 2014.2 -15.7C2009.8 -28.9 2000.5 -60.7 1996.8 -75.7C1995.7 -79.8 1991.8 -93.3 1988.1 -105.7C1978.4 -137.3 1972.8 -156.4 1965.9 -180.6C1962.6 -192.2 1959.2 -204.0 1958.4 -206.9C1957.6 -209.7 1954.9 -219.2 1952.4 -227.8C1948.3 -242.4 1943.0 -260.5 1930.7 -302.0C1928.0 -311.1 1923.7 -325.9 1921.1 -335.0C1918.5 -344.1 1913.7 -359.9 1910.5 -370.2C1907.3 -380.5 1903.0 -394.7 1901.0 -401.7C1899.0 -408.7 1894.5 -423.6 1891.1 -434.7C1887.6 -445.8 1877.1 -481.9 1867.8 -514.9C1849.1 -580.5 1845.2 -593.7 1837.5 -618.3C1834.7 -627.4 1830.9 -640.5 1829.0 -647.5C1821.8 -674.1 1814.5 -699.7 1810.7 -712.0C1808.6 -719.0 1805.9 -728.1 1804.9 -732.2C1803.9 -736.3 1801.5 -744.0 1799.8 -749.3C1798.0 -754.5 1794.9 -764.7 1792.9 -771.8C1791.0 -778.9 1786.2 -795.5 1782.4 -808.7C1778.5 -821.9 1773.1 -841.1 1770.3 -851.4C1767.5 -861.7 1764.2 -873.5 1763.1 -877.6C1758.8 -892.3 1753.1 -913.8 1749.4 -928.6C1745.1 -945.7 1734.1 -983.3 1727.4 -1004.2C1724.8 -1011.9 1721.6 -1022.7 1720.2 -1028.2C1717.8 -1037.2 1714.4 -1049.2 1704.5 -1083.7C1702.5 -1090.7 1699.7 -1100.9 1698.4 -1106.2C1695.7 -1117.5 1694.6 -1121.0 1678.3 -1171.9C1665.7 -1211.1 1640.8 -1297.1 1634.8 -1322.1C1633.0 -1329.9 1629.8 -1341.4 1627.8 -1347.5C1625.9 -1353.7 1622.5 -1364.7 1620.4 -1371.9C1614.9 -1390.7 1607.1 -1391.8 1600.9 -1374.7C1599.5 -1370.9 1594.3 -1358.0 1589.4 -1346.0C1584.5 -1334.1 1575.7 -1312.5 1570.0 -1298.1C1558.8 -1270.2 1532.3 -1207.8 1523.1 -1187.9C1520.1 -1181.3 1512.3 -1163.4 1505.9 -1148.2C1499.4 -1132.9 1489.5 -1110.3 1483.8 -1098.0C1478.1 -1085.6 1471.1 -1070.1 1468.4 -1063.5C1465.6 -1056.9 1456.1 -1034.8 1447.1 -1014.4C1438.2 -994.0 1426.6 -966.6 1421.3 -953.7C1410.8 -927.6 1402.5 -908.9 1394.1 -891.9C1391.1 -885.7 1382.7 -867.5 1375.4 -851.4C1368.2 -835.3 1354.9 -806.3 1345.8 -786.9C1336.8 -767.6 1326.3 -744.0 1322.6 -734.5C1318.8 -725.0 1310.6 -705.8 1304.2 -691.8C1291.5 -663.9 1283.8 -646.1 1267.8 -608.6C1262.0 -595.0 1253.5 -575.1 1248.8 -564.3C1244.1 -553.6 1236.0 -535.0 1230.7 -523.0C1225.5 -511.0 1215.0 -488.0 1207.4 -472.0C1199.9 -456.0 1187.8 -429.1 1180.6 -412.2C1173.3 -395.3 1161.0 -367.6 1153.1 -350.6C1145.2 -333.5 1135.4 -311.6 1131.3 -301.8C1127.2 -292.1 1117.3 -270.2 1109.4 -253.3C1093.2 -218.9 1069.5 -165.5 1066.8 -157.2C1063.2 -146.0 1055.6 -144.1 1051.2 -153.3C1049.1 -157.7 1034.8 -189.2 992.4 -281.9C984.0 -300.5 975.2 -320.0 973.0 -325.4C970.8 -330.7 966.7 -340.1 964.0 -346.3C961.3 -352.4 955.3 -365.9 950.8 -376.2C946.2 -386.5 937.5 -405.5 931.3 -418.3C919.9 -442.2 907.1 -471.4 885.3 -523.1C878.6 -539.2 870.5 -558.1 867.3 -565.1C864.2 -572.1 858.1 -586.3 853.8 -596.6C837.8 -634.6 826.0 -661.2 808.5 -698.5C798.6 -719.5 789.6 -739.1 788.5 -742.0C787.5 -744.9 783.4 -754.3 779.6 -763.0C775.7 -771.6 770.0 -784.8 766.9 -792.2C757.4 -815.0 739.2 -855.6 728.7 -877.6C723.2 -889.2 712.4 -913.1 704.7 -930.8C696.9 -948.6 687.2 -970.8 682.9 -980.3C678.7 -989.8 669.6 -1010.7 662.7 -1026.9C655.8 -1043.0 644.3 -1068.7 637.2 -1083.8C624.5 -1110.6 611.2 -1140.6 598.2 -1171.4C575.9 -1224.5 566.8 -1245.5 559.3 -1262.1C554.7 -1272.4 544.9 -1295.3 537.6 -1313.1C530.3 -1330.8 520.9 -1353.0 516.7 -1362.5C512.4 -1372.0 508.0 -1381.9 506.8 -1384.6C501.4 -1396.8 492.0 -1391.5 488.7 -1374.3C487.6 -1368.3 485.0 -1357.2 483.0 -1349.8C481.0 -1342.4 478.7 -1333.3 477.9 -1329.6C475.6 -1318.6 467.3 -1288.1 461.9 -1270.3C459.1 -1261.3 455.8 -1249.8 454.5 -1244.9C453.2 -1239.9 451.1 -1232.2 449.8 -1227.6C448.5 -1223.1 445.2 -1210.6 442.4 -1199.9C439.6 -1189.2 433.7 -1168.3 429.1 -1153.4C417.3 -1114.3 411.8 -1094.9 401.1 -1053.7C393.9 -1026.0 389.3 -1010.1 375.3 -964.6C370.0 -947.2 361.4 -917.9 356.3 -899.4C344.7 -857.3 342.9 -851.3 332.2 -816.2C323.8 -788.8 314.5 -756.6 296.7 -694.0C288.1 -663.5 283.4 -647.4 271.0 -604.8C266.9 -590.8 260.7 -569.6 257.3 -557.6C253.8 -545.6 247.1 -523.4 242.3 -508.1C224.7 -452.8 209.3 -401.8 200.3 -369.5C195.2 -351.3 189.8 -332.8 188.3 -328.3C183.7 -314.9 168.1 -264.7 161.4 -242.1C157.9 -230.5 150.9 -207.6 145.6 -191.1C140.4 -174.6 134.9 -157.1 133.5 -152.1C132.1 -147.2 129.4 -138.1 127.4 -131.9C125.5 -125.7 122.3 -114.6 120.3 -107.2C112.9 -79.3 105.3 -53.9 96.7 -28.4C83.0 12.5 82.7 12.0 118.6 12.0C145.2 12.0 147.2 11.4 151.8 2.5C154.9 -3.4 170.0 -49.4 175.5 -69.7C177.7 -77.9 181.5 -90.8 183.9 -98.2C187.8 -110.4 196.7 -140.0 207.2 -176.1C209.4 -183.5 212.1 -192.6 213.2 -196.4C214.3 -200.1 220.2 -219.6 226.3 -239.8C232.4 -260.0 240.6 -287.3 244.5 -300.5C248.4 -313.7 253.8 -331.6 256.6 -340.3C261.7 -356.3 272.5 -392.6 276.0 -404.7C277.0 -408.4 280.6 -421.2 283.9 -433.2C293.0 -465.4 301.7 -495.2 306.6 -510.4C309.0 -517.8 313.8 -533.7 317.3 -545.6C320.7 -557.6 325.8 -574.8 328.5 -583.8C331.2 -592.9 336.9 -612.1 341.2 -626.6C345.5 -641.0 350.9 -658.9 353.2 -666.3C358.8 -684.0 388.0 -784.7 395.2 -810.9C399.2 -825.6 410.8 -864.6 417.7 -886.6C421.1 -897.3 425.8 -912.8 428.2 -921.1C430.6 -929.3 433.6 -939.5 434.9 -943.6C436.1 -947.7 439.6 -959.5 442.6 -969.8C454.6 -1011.7 465.2 -1048.0 472.3 -1071.0C486.7 -1118.1 497.9 -1160.2 504.5 -1191.5C507.9 -1208.2 517.6 -1207.9 524.1 -1190.9C524.9 -1188.6 528.3 -1180.9 531.5 -1173.8C547.4 -1139.0 581.0 -1062.2 590.1 -1039.9C595.8 -1026.2 605.9 -1003.2 612.6 -989.0C634.6 -942.2 657.1 -891.2 680.4 -834.9C685.0 -823.8 691.9 -807.6 695.8 -798.9C699.6 -790.3 705.0 -778.1 707.7 -771.9C714.1 -757.3 737.1 -706.2 748.8 -680.6C753.9 -669.6 762.7 -649.3 768.4 -635.5C774.0 -621.8 782.1 -602.9 786.3 -593.5C790.5 -584.2 798.1 -566.7 803.1 -554.7C808.1 -542.7 820.8 -514.3 831.4 -491.6C841.9 -469.0 854.1 -442.0 858.3 -431.7C872.8 -396.9 891.1 -354.6 898.8 -338.0C912.4 -309.2 933.9 -261.1 959.9 -201.6C971.6 -174.8 986.2 -142.5 1006.4 -98.9C1022.8 -63.5 1041.7 -20.6 1044.0 -13.6C1048.1 -1.4 1062.2 -0.7 1062.2 -12.7C1062.2 -13.2 1067.6 -24.8 1074.2 -38.3C1080.8 -51.9 1086.2 -63.4 1086.2 -63.8C1086.2 -64.3 1094.7 -82.7 1105.1 -104.7C1115.5 -126.7 1126.2 -149.4 1128.9 -155.1C1131.6 -160.9 1137.8 -174.1 1142.7 -184.4C1147.6 -194.7 1154.2 -208.8 1157.3 -215.8C1160.4 -222.9 1165.5 -234.3 1168.6 -241.3C1171.8 -248.3 1177.4 -261.2 1181.1 -269.8C1184.8 -278.5 1193.9 -298.0 1201.3 -313.3C1208.7 -328.5 1216.6 -345.4 1218.8 -350.7C1224.6 -364.8 1241.2 -402.7 1249.9 -421.9C1261.9 -448.6 1268.4 -463.1 1274.0 -475.9C1284.7 -500.5 1320.2 -580.3 1332.0 -606.3C1338.7 -621.2 1349.3 -644.8 1355.5 -658.8C1361.7 -672.8 1372.8 -697.3 1380.3 -713.3C1387.7 -729.3 1394.8 -744.8 1396.0 -747.8C1397.3 -750.8 1405.7 -769.1 1414.8 -788.4C1423.9 -807.8 1436.8 -836.8 1443.3 -852.9C1468.9 -915.5 1481.1 -943.6 1502.9 -989.3C1518.7 -1022.4 1521.2 -1028.0 1539.2 -1070.2C1545.0 -1083.8 1553.1 -1102.7 1557.1 -1112.2C1561.2 -1121.7 1570.3 -1143.3 1577.3 -1160.2C1597.6 -1209.2 1600.1 -1209.4 1614.4 -1163.0C1632.3 -1105.2 1641.1 -1076.1 1646.0 -1059.0C1648.9 -1049.1 1653.9 -1031.6 1657.2 -1020.0C1660.6 -1008.5 1665.6 -990.4 1668.5 -979.8C1671.4 -969.2 1674.1 -960.0 1674.4 -959.4C1674.8 -958.8 1676.8 -951.8 1679.0 -943.8C1681.1 -935.7 1685.8 -919.6 1689.3 -907.9C1692.9 -896.2 1699.0 -875.8 1702.9 -862.6C1706.8 -849.4 1710.9 -836.0 1712.1 -832.7C1717.2 -817.4 1745.0 -719.1 1756.0 -677.5C1759.1 -665.8 1764.1 -649.2 1780.6 -595.8C1786.0 -578.5 1793.8 -551.9 1798.1 -536.6C1802.3 -521.4 1807.7 -502.8 1810.1 -495.4C1814.1 -482.7 1819.4 -464.3 1834.0 -411.5C1855.5 -333.8 1891.7 -208.5 1902.2 -175.4C1904.2 -169.2 1907.3 -158.7 1909.1 -152.1C1910.9 -145.5 1913.4 -137.1 1914.6 -133.4C1915.8 -129.7 1918.4 -120.9 1920.4 -113.9C1929.3 -82.7 1936.5 -58.6 1939.1 -51.0C1940.6 -46.4 1943.3 -36.3 1945.1 -28.5C1953.7 8.9 1955.2 10.9 1977.0 12.1Z"/></svg>